<?xml version="1.0" encoding="iso-8859-1"?>
<!-- Generator: Adobe Illustrator 19.0.0, SVG Export Plug-In . SVG Version: 6.00 Build 0)  -->
<svg version="1.1" id="Capa_1" xmlns="http://www.w3.org/2000/svg" xmlns:xlink="http://www.w3.org/1999/xlink" x="0px" y="0px"
	 viewBox="0 0 511.993 511.993" style="enable-background:new 0 0 511.993 511.993;" xml:space="preserve">
<g>
	<g>
		<circle cx="124.208" cy="153.079" r="34.791"/>
	</g>
</g>
<g>
	<g>
		<circle cx="337.047" cy="34.791" r="34.791"/>
	</g>
</g>
<g>
	<g>
		<path d="M468.274,379.701h-15.893v0c0.366-0.126,0.733-0.241,1.096-0.389c9.876-4.069,14.584-15.374,10.515-25.251l-33.618-81.596
			l-2.543-60.775c-0.101-2.421-0.662-4.709-1.565-6.811L401.154,92.273c-2.825-12.669-15.386-20.649-28.055-17.824l-40.907,9.123
			c-12.669,2.825-20.649,15.386-17.824,28.055l3.662,16.418l15.91-25.107l-16.608,47.91l-54.755,23.546
			c-7.851,3.376-11.478,12.477-8.102,20.327c3.375,7.847,12.471,11.479,20.326,8.102l61.027-26.242
			c3.995-1.718,7.082-5.038,8.507-9.147l18.844-54.356l-6.052,58.79c-1.243,12.069-11.469,15.226-15.951,17.15l-8.712,3.747
			l5.109,22.91l-16.762,45.698c-0.48,1.311-0.818,2.669-1.007,4.051l-12.713,93.397c-1.264,9.289,4.293,17.931,12.825,20.881h-16.23
			c-3.943,0-7.139,3.196-7.139,7.139v59.007h-77.32c6.062-3.956,9.658-11.149,8.617-18.799l-12.714-93.397
			c-1.136-8.347-7.545-14.999-15.845-16.445l-36.216-6.31v-32.849l-45.604-37.168l51.736,25.164c3.91,1.903,8.44,2.071,12.481,0.464
			l61.734-24.532c7.941-3.156,11.82-12.151,8.665-20.094c-3.156-7.941-12.153-11.82-20.094-8.665l-55.389,22.012l-45.597-22.179
			l31.883,7.183c-1.43-11.611-11.321-20.601-23.318-20.601H97.654c-12.98,0-23.502,10.523-23.502,23.502v120.584h0.021
			l-2.509,59.966l-33.619,81.596c-4.07,9.877,0.639,21.182,10.515,25.251c9.884,4.071,21.184-0.644,25.251-10.515l34.918-84.748
			c0.859-2.086,1.348-4.306,1.441-6.559l2.685-64.181c0.011-0.273-0.007-0.539-0.007-0.808h15.947
			c2.769,1.134,0.17,0.499,49.914,9.168l10.806,79.38c0.788,5.793,4.076,10.62,8.616,13.582h-73.312
			c-3.942,0-7.139,3.196-7.139,7.139v51.87c0,3.942,3.196,7.138,7.139,7.138c47.2,0,296.255,0,343.454,0
			c3.942,0,7.139-3.195,7.139-7.138c0-23.22,0-94.797,0-118.016C475.412,382.897,472.217,379.701,468.274,379.701z M332.555,379.7
			c6.675-2.309,11.846-8.187,12.863-15.664l12.43-91.317l18.871-51.453l12.677-2.827l2.471,59.049
			c0.093,2.254,0.582,4.473,1.441,6.559l34.917,84.748c2.199,5.34,6.519,9.157,11.58,10.905H332.555z"/>
	</g>
</g>
<g>
</g>
<g>
</g>
<g>
</g>
<g>
</g>
<g>
</g>
<g>
</g>
<g>
</g>
<g>
</g>
<g>
</g>
<g>
</g>
<g>
</g>
<g>
</g>
<g>
</g>
<g>
</g>
<g>
</g>
</svg>
